<svg width="342" height="179" viewBox="0 0 342 179" fill="none" xmlns="http://www.w3.org/2000/svg">
<mask id="path-1-inside-1" fill="white">
<path d="M322.46 0.617386C333.14 0.0968323 342.334 8.3541 341.644 19.0241C340.594 35.2867 337.221 51.3494 331.603 66.7173C323.763 88.1601 311.709 107.816 296.151 124.525C280.593 141.235 261.847 154.66 241.017 164.008C220.188 173.357 197.697 178.439 174.872 178.956C152.047 179.473 129.35 175.414 108.118 167.018C86.8869 158.623 67.5518 146.061 51.2533 130.073C34.9548 114.085 22.023 94.9948 13.2205 73.9289C6.91185 58.8313 2.81578 42.9377 1.02989 26.7394C-0.141858 16.1115 8.66875 7.4464 19.361 7.48285C30.0532 7.51932 38.5462 16.2616 40.0694 26.8448C41.6562 37.8695 44.6328 48.6755 48.9471 59.0004C55.7564 75.2962 65.7601 90.0635 78.368 102.431C90.976 114.799 105.933 124.517 122.357 131.011C138.781 137.506 156.339 140.646 173.995 140.246C191.652 139.846 209.05 135.914 225.163 128.683C241.276 121.451 255.778 111.066 267.813 98.1402C279.848 85.2142 289.172 70.0092 295.237 53.4217C299.079 42.9121 301.564 31.9824 302.65 20.8971C303.692 10.2558 311.78 1.13794 322.46 0.617386Z"/>
</mask>
<path d="M322.46 0.617386C333.14 0.0968323 342.334 8.3541 341.644 19.0241C340.594 35.2867 337.221 51.3494 331.603 66.7173C323.763 88.1601 311.709 107.816 296.151 124.525C280.593 141.235 261.847 154.66 241.017 164.008C220.188 173.357 197.697 178.439 174.872 178.956C152.047 179.473 129.35 175.414 108.118 167.018C86.8869 158.623 67.5518 146.061 51.2533 130.073C34.9548 114.085 22.023 94.9948 13.2205 73.9289C6.91185 58.8313 2.81578 42.9377 1.02989 26.7394C-0.141858 16.1115 8.66875 7.4464 19.361 7.48285C30.0532 7.51932 38.5462 16.2616 40.0694 26.8448C41.6562 37.8695 44.6328 48.6755 48.9471 59.0004C55.7564 75.2962 65.7601 90.0635 78.368 102.431C90.976 114.799 105.933 124.517 122.357 131.011C138.781 137.506 156.339 140.646 173.995 140.246C191.652 139.846 209.05 135.914 225.163 128.683C241.276 121.451 255.778 111.066 267.813 98.1402C279.848 85.2142 289.172 70.0092 295.237 53.4217C299.079 42.9121 301.564 31.9824 302.65 20.8971C303.692 10.2558 311.78 1.13794 322.46 0.617386Z" stroke="#FCBB42" stroke-opacity="0.8" stroke-width="40" mask="url(#path-1-inside-1)"/>
</svg>
