<svg width="514" height="510" viewBox="0 0 514 510" fill="none" xmlns="http://www.w3.org/2000/svg">
<path fill-rule="evenodd" clip-rule="evenodd" d="M198.145 84.089C250.506 62.1453 287.325 -9.49781 343.054 1.34077C396.844 11.802 408.692 85.0732 438.758 130.885C465.558 171.718 501.243 207.504 509.909 255.571C518.905 305.463 512.32 358.555 487.809 402.933C463.769 446.457 422.267 478.414 376.325 497.431C333.92 514.984 287.224 510.112 241.634 504.835C199.238 499.928 159.601 487.644 121.731 467.962C79.1794 445.847 28.1655 427.587 8.68982 383.765C-10.8451 339.809 11.1778 289.914 21.7472 242.989C31.8605 198.088 34.7558 147.016 68.9528 116.211C102.605 85.8974 156.372 101.595 198.145 84.089Z" fill="#FDC806"/>
</svg>
