<svg width="495" height="473" viewBox="0 0 495 473" fill="none" xmlns="http://www.w3.org/2000/svg">
<path fill-rule="evenodd" clip-rule="evenodd" d="M80.4016 408.219C41.6516 381.044 14.2901 338.378 3.49339 292.317C-6.82645 248.29 15.5449 205.488 22.409 160.811C30.105 110.718 6.45576 45.0953 46.2871 13.7759C87.1466 -18.352 147.13 17.4283 198.943 22.0018C235.812 25.2562 269.982 32.3358 306.729 36.765C359.481 43.1231 423.53 17.0095 461.978 53.7054C499.085 89.1223 477.294 152.056 481.09 203.182C485.026 256.199 505.86 310.657 484.671 359.39C462.669 409.993 418.376 453.798 365.395 469.274C314.512 484.137 264.36 450.001 212.5 438.891C167.386 429.226 118.185 434.716 80.4016 408.219Z" fill="#0A80DF"/>
</svg>
