<svg width="305" height="260" viewBox="0 0 305 260" fill="none" xmlns="http://www.w3.org/2000/svg">
<g filter="url(#filter0_dd)">
<path d="M261.815 177.552C264.275 186.396 265.504 190.818 264.472 195.63C263.675 199.347 260.912 204.029 258.044 206.524C254.331 209.754 250.559 210.651 243.016 212.444C189.054 225.272 118.582 216.936 67.0994 207.347C53.5784 204.829 46.8179 203.57 42.7342 200.058C39.0213 196.865 36.8027 192.897 36.0272 188.062C35.1743 182.743 37.9104 175.628 43.3826 161.397C54.5435 132.373 64.9584 99.0902 75.3624 68.241C80.0059 54.4725 82.3276 47.5883 86.0919 43.6037C90.1234 39.3362 92.6603 37.8632 98.3651 36.4778C103.692 35.1842 114.229 37.2485 135.304 41.3772C149.488 44.1558 165.335 44.3859 183.116 40.4445C194.851 37.8434 200.718 36.5429 206.14 37.7505C210.622 38.7488 215.485 41.4734 218.677 44.7744C222.538 48.7678 223.839 52.5489 226.44 60.111C237.816 93.1818 252.678 144.703 261.815 177.552Z" fill="#F0F1F5"/>
<path d="M261.815 177.552C264.275 186.396 265.504 190.818 264.472 195.63C263.675 199.347 260.912 204.029 258.044 206.524C254.331 209.754 250.559 210.651 243.016 212.444C189.054 225.272 118.582 216.936 67.0994 207.347C53.5784 204.829 46.8179 203.57 42.7342 200.058C39.0213 196.865 36.8027 192.897 36.0272 188.062C35.1743 182.743 37.9104 175.628 43.3826 161.397C54.5435 132.373 64.9584 99.0902 75.3624 68.241C80.0059 54.4725 82.3276 47.5883 86.0919 43.6037C90.1234 39.3362 92.6603 37.8632 98.3651 36.4778C103.692 35.1842 114.229 37.2485 135.304 41.3772C149.488 44.1558 165.335 44.3859 183.116 40.4445C194.851 37.8434 200.718 36.5429 206.14 37.7505C210.622 38.7488 215.485 41.4734 218.677 44.7744C222.538 48.7678 223.839 52.5489 226.44 60.111C237.816 93.1818 252.678 144.703 261.815 177.552Z" fill="url(#paint0_linear)" fill-opacity="0.6" style="mix-blend-mode:soft-light"/>
</g>
<defs>
<filter id="filter0_dd" x="0.268848" y="0.48933" width="304.625" height="258.566" filterUnits="userSpaceOnUse" color-interpolation-filters="sRGB">
<feFlood flood-opacity="0" result="BackgroundImageFix"/>
<feColorMatrix in="SourceAlpha" type="matrix" values="0 0 0 0 0 0 0 0 0 0 0 0 0 0 0 0 0 0 127 0" result="hardAlpha"/>
<feOffset dx="13.3518" dy="13.3518"/>
<feGaussianBlur stdDeviation="13.3518"/>
<feColorMatrix type="matrix" values="0 0 0 0 0.682353 0 0 0 0 0.682353 0 0 0 0 0.752941 0 0 0 0.4 0"/>
<feBlend mode="normal" in2="BackgroundImageFix" result="effect1_dropShadow"/>
<feColorMatrix in="SourceAlpha" type="matrix" values="0 0 0 0 0 0 0 0 0 0 0 0 0 0 0 0 0 0 127 0" result="hardAlpha"/>
<feOffset dx="-8.90123" dy="-8.90123"/>
<feGaussianBlur stdDeviation="13.3518"/>
<feColorMatrix type="matrix" values="0 0 0 0 1 0 0 0 0 1 0 0 0 0 1 0 0 0 1 0"/>
<feBlend mode="normal" in2="effect1_dropShadow" result="effect2_dropShadow"/>
<feBlend mode="normal" in="SourceGraphic" in2="effect2_dropShadow" result="shape"/>
</filter>
<linearGradient id="paint0_linear" x1="27" y1="23.5" x2="218.132" y2="260.094" gradientUnits="userSpaceOnUse">
<stop/>
<stop offset="1" stop-color="white" stop-opacity="0"/>
</linearGradient>
</defs>
</svg>
