<svg width="569" height="579" viewBox="0 0 569 579" fill="none" xmlns="http://www.w3.org/2000/svg">
<path fill-rule="evenodd" clip-rule="evenodd" d="M274.678 1.22288C340.589 -4.77929 416.805 10.6111 458.666 63.0308C499.382 114.017 457.953 191.931 477.151 254.767C495.966 316.347 577.974 355.764 567.545 419.393C557.281 482.012 487.133 515.685 430.227 541.049C381.426 562.8 327.722 545.346 274.678 549.925C214.438 555.125 152.853 597.365 98.8087 569.656C43.6141 541.356 18.716 473.256 5.03536 411.674C-7.82328 353.792 6.31097 295.266 25.3999 239.212C44.1055 184.283 71.4741 134.193 113.045 94.5046C159.403 50.2461 211.514 6.97487 274.678 1.22288Z" fill="url(#paint0_linear)"/>
<defs>
<linearGradient id="paint0_linear" x1="91.6822" y1="197.907" x2="432.703" y2="544.243" gradientUnits="userSpaceOnUse">
<stop stop-color="#FDBB0A"/>
<stop offset="1" stop-color="#FB9E28" stop-opacity="0.48"/>
</linearGradient>
</defs>
</svg>
