<svg width="55" height="112" viewBox="0 0 55 112" fill="none" xmlns="http://www.w3.org/2000/svg">
<mask id="path-1-inside-1" fill="white">
<path d="M46.3808 108.399C37.5938 114.491 25.4227 112.348 20.3623 102.929C6.26084 76.6818 -0.739449 47.1923 0.0612041 17.4081C0.348528 6.71964 10.2579 -0.664978 20.8454 0.827896C31.433 2.32076 38.6553 12.1392 38.7224 22.8313C38.8485 42.9136 43.5482 62.7117 52.4613 80.7081C57.2068 90.2896 55.1679 102.307 46.3808 108.399Z"/>
</mask>
<path d="M46.3808 108.399C37.5938 114.491 25.4227 112.348 20.3623 102.929C6.26084 76.6818 -0.739449 47.1923 0.0612041 17.4081C0.348528 6.71964 10.2579 -0.664978 20.8454 0.827896C31.433 2.32076 38.6553 12.1392 38.7224 22.8313C38.8485 42.9136 43.5482 62.7117 52.4613 80.7081C57.2068 90.2896 55.1679 102.307 46.3808 108.399Z" stroke="#0A80DF" stroke-width="40" mask="url(#path-1-inside-1)"/>
</svg>
