<svg width="76" height="76" viewBox="0 0 76 76" fill="none" xmlns="http://www.w3.org/2000/svg">
<g filter="url(#filter0_d)">
<path d="M28.4595 9.61108C28.7451 7.19537 31.6359 6.10602 33.4447 7.73251L44.0776 17.2938C44.8149 17.9568 45.8322 18.2126 46.7954 17.9774L61.1858 14.4624C63.7072 13.8466 65.7679 16.5063 64.5418 18.794L58.0036 30.9926C57.4955 31.9407 57.5338 33.0883 58.1041 34.0003L65.2646 45.4523C66.5887 47.5701 64.8964 50.284 62.412 50.0268L47.3831 48.471C46.4441 48.3738 45.5141 48.7242 44.8728 49.417L34.6082 60.5041C32.9113 62.337 29.8488 61.4148 29.446 58.9498L27.2681 45.6203C27.0946 44.5587 26.3661 43.6712 25.3586 43.2943L12.3959 38.4441C9.96497 37.5346 9.75792 34.1763 12.0587 32.975L25.1901 26.1189C26.069 25.66 26.6645 24.7964 26.7809 23.8117L28.4595 9.61108Z" fill="url(#paint0_linear)" shape-rendering="crispEdges"/>
</g>
<defs>
<filter id="filter0_d" x="0.447052" y="0.959534" width="75.2804" height="74.5095" filterUnits="userSpaceOnUse" color-interpolation-filters="sRGB">
<feFlood flood-opacity="0" result="BackgroundImageFix"/>
<feColorMatrix in="SourceAlpha" type="matrix" values="0 0 0 0 0 0 0 0 0 0 0 0 0 0 0 0 0 0 127 0" result="hardAlpha"/>
<feOffset dy="4"/>
<feGaussianBlur stdDeviation="5"/>
<feComposite in2="hardAlpha" operator="out"/>
<feColorMatrix type="matrix" values="0 0 0 0 0.0392157 0 0 0 0 0.501961 0 0 0 0 0.87451 0 0 0 1 0"/>
<feBlend mode="normal" in2="BackgroundImageFix" result="effect1_dropShadow"/>
<feBlend mode="normal" in="SourceGraphic" in2="effect1_dropShadow" result="shape"/>
</filter>
<linearGradient id="paint0_linear" x1="35.1266" y1="43.3242" x2="51.7831" y2="15.9067" gradientUnits="userSpaceOnUse">
<stop stop-color="#0A80DF"/>
<stop offset="1" stop-color="#0A80DF" stop-opacity="0.47"/>
</linearGradient>
</defs>
</svg>
